<svg width="40" height="40" viewBox="0 0 40 40" fill="none" xmlns="http://www.w3.org/2000/svg">
  <circle cx="20" cy="20" r="20" fill="#24292F"/>
  <path fillRule="evenodd" clipRule="evenodd" d="M20 11C15.0374 11 11 15.0374 11 20C11 23.9624 13.5812 27.3061 17.1875 28.4375C17.6875 28.5312 17.8437 28.2187 17.8437 27.9375C17.8437 27.6875 17.8437 27.0312 17.8437 26.1875C15.1562 26.7812 14.5625 24.5937 14.5625 24.5937C14.0937 23.4062 13.4062 23.0937 13.4062 23.0937C12.4687 22.4375 13.4687 22.4375 13.4687 22.4375C14.4687 22.5312 15.0312 23.5 15.0312 23.5C15.9375 25.1562 17.4375 24.625 17.875 24.375C17.9687 23.6875 18.25 23.1875 18.5625 22.9062C16.4375 22.625 14.1875 21.7812 14.1875 18.3125C14.1875 17.2187 14.5937 16.3125 15.0937 15.625C15 15.375 14.625 14.2187 15.1875 12.9375C15.1875 12.9375 16 12.6562 17.8437 13.875C18.5625 13.625 19.2812 13.5 20 13.5C20.7187 13.5 21.4375 13.625 22.1562 13.875C24 12.6562 24.8125 12.9375 24.8125 12.9375C25.375 14.2187 25 15.375 24.9062 15.625C25.4062 16.3125 25.8125 17.2187 25.8125 18.3125C25.8125 21.7812 23.5625 22.625 21.4375 22.9062C21.8125 23.25 22.1562 23.9375 22.1562 24.9375C22.1562 26.375 22.1562 27.5937 22.1562 27.9375C22.1562 28.2187 22.3125 28.5312 22.8125 28.4375C26.4187 27.3061 29 23.9624 29 20C29 15.0374 24.9625 11 20 11Z" fill="white"/>
</svg> 